M48
; DRILL file {KiCad (6.0.11-0)} date 2023 February 13, Monday 11:24:25
; FORMAT={-:-/ absolute / metric / decimal}
; #@! TF.CreationDate,2023-02-13T11:24:25+01:00
; #@! TF.GenerationSoftware,Kicad,Pcbnew,(6.0.11-0)
; #@! TF.FileFunction,Plated,1,2,PTH
FMAT,2
METRIC
; #@! TA.AperFunction,Plated,PTH,ViaDrill
T1C0.400
; #@! TA.AperFunction,Plated,PTH,ComponentDrill
T2C0.800
; #@! TA.AperFunction,Plated,PTH,ComponentDrill
T3C1.000
%
G90
G05
T1
X78.156Y-107.747
X79.019Y-116.383
X79.629Y-107.899
X83.591Y-115.443
X86.055Y-108.509
T2
X92.761Y-113.7
X92.761Y-116.24
X92.761Y-118.78
X92.862Y-102.504
X92.862Y-105.044
X92.862Y-107.584
T3
X73.762Y-96.012
X76.302Y-96.012
X77.622Y-122.428
X78.842Y-96.012
X80.162Y-122.428
X81.382Y-96.012
X82.702Y-122.428
X83.922Y-96.012
X85.242Y-122.428
X86.462Y-96.012
X87.782Y-122.428
X89.002Y-96.012
X91.542Y-96.012
T0
M30
