%TF.GenerationSoftware,KiCad,Pcbnew,(6.0.11-0)*%
%TF.CreationDate,2023-02-13T11:24:02+01:00*%
%TF.ProjectId,vectrex_joystick,76656374-7265-4785-9f6a-6f7973746963,rev?*%
%TF.SameCoordinates,Original*%
%TF.FileFunction,Legend,Top*%
%TF.FilePolarity,Positive*%
%FSLAX46Y46*%
G04 Gerber Fmt 4.6, Leading zero omitted, Abs format (unit mm)*
G04 Created by KiCad (PCBNEW (6.0.11-0)) date 2023-02-13 11:24:02*
%MOMM*%
%LPD*%
G01*
G04 APERTURE LIST*
%ADD10C,0.150000*%
%ADD11C,0.120000*%
G04 APERTURE END LIST*
D10*
X75976219Y-98531323D02*
X75976219Y-98055133D01*
X76976219Y-98055133D01*
X81030819Y-98658323D02*
X81507009Y-98324990D01*
X81030819Y-98086895D02*
X82030819Y-98086895D01*
X82030819Y-98467847D01*
X81983200Y-98563085D01*
X81935580Y-98610704D01*
X81840342Y-98658323D01*
X81697485Y-98658323D01*
X81602247Y-98610704D01*
X81554628Y-98563085D01*
X81507009Y-98467847D01*
X81507009Y-98086895D01*
X86060019Y-98086895D02*
X87060019Y-98086895D01*
X87060019Y-98324990D01*
X87012400Y-98467847D01*
X86917161Y-98563085D01*
X86821923Y-98610704D01*
X86631447Y-98658323D01*
X86488590Y-98658323D01*
X86298114Y-98610704D01*
X86202876Y-98563085D01*
X86107638Y-98467847D01*
X86060019Y-98324990D01*
X86060019Y-98086895D01*
X91962219Y-98190085D02*
X91152695Y-98190085D01*
X91057457Y-98237704D01*
X91009838Y-98285323D01*
X90962219Y-98380561D01*
X90962219Y-98571038D01*
X91009838Y-98666276D01*
X91057457Y-98713895D01*
X91152695Y-98761514D01*
X91962219Y-98761514D01*
X78071600Y-118287895D02*
X78119219Y-118192657D01*
X78119219Y-118049800D01*
X78071600Y-117906942D01*
X77976361Y-117811704D01*
X77881123Y-117764085D01*
X77690647Y-117716466D01*
X77547790Y-117716466D01*
X77357314Y-117764085D01*
X77262076Y-117811704D01*
X77166838Y-117906942D01*
X77119219Y-118049800D01*
X77119219Y-118145038D01*
X77166838Y-118287895D01*
X77214457Y-118335514D01*
X77547790Y-118335514D01*
X77547790Y-118145038D01*
X77119219Y-118764085D02*
X78119219Y-118764085D01*
X77119219Y-119335514D01*
X78119219Y-119335514D01*
X77119219Y-119811704D02*
X78119219Y-119811704D01*
X78119219Y-120049800D01*
X78071600Y-120192657D01*
X77976361Y-120287895D01*
X77881123Y-120335514D01*
X77690647Y-120383133D01*
X77547790Y-120383133D01*
X77357314Y-120335514D01*
X77262076Y-120287895D01*
X77166838Y-120192657D01*
X77119219Y-120049800D01*
X77119219Y-119811704D01*
X80141771Y-118522857D02*
X80141771Y-119284761D01*
X80760819Y-120237142D02*
X80760819Y-119760952D01*
X80284628Y-119713333D01*
X80332247Y-119760952D01*
X80379866Y-119856190D01*
X80379866Y-120094285D01*
X80332247Y-120189523D01*
X80284628Y-120237142D01*
X80189390Y-120284761D01*
X79951295Y-120284761D01*
X79856057Y-120237142D01*
X79808438Y-120189523D01*
X79760819Y-120094285D01*
X79760819Y-119856190D01*
X79808438Y-119760952D01*
X79856057Y-119713333D01*
X82173771Y-118649857D02*
X82173771Y-119411761D01*
X81792819Y-119030809D02*
X82554723Y-119030809D01*
X82792819Y-120364142D02*
X82792819Y-119887952D01*
X82316628Y-119840333D01*
X82364247Y-119887952D01*
X82411866Y-119983190D01*
X82411866Y-120221285D01*
X82364247Y-120316523D01*
X82316628Y-120364142D01*
X82221390Y-120411761D01*
X81983295Y-120411761D01*
X81888057Y-120364142D01*
X81840438Y-120316523D01*
X81792819Y-120221285D01*
X81792819Y-119983190D01*
X81840438Y-119887952D01*
X81888057Y-119840333D01*
X85444009Y-119964200D02*
X84967819Y-119964200D01*
X85967819Y-119630866D02*
X85444009Y-119964200D01*
X85967819Y-120297533D01*
X87310980Y-120272133D02*
X88310980Y-119605466D01*
X87310980Y-119605466D02*
X88310980Y-120272133D01*
%TO.C,R4*%
X84932780Y-102427066D02*
X84456590Y-102760400D01*
X84932780Y-102998495D02*
X83932780Y-102998495D01*
X83932780Y-102617542D01*
X83980400Y-102522304D01*
X84028019Y-102474685D01*
X84123257Y-102427066D01*
X84266114Y-102427066D01*
X84361352Y-102474685D01*
X84408971Y-102522304D01*
X84456590Y-102617542D01*
X84456590Y-102998495D01*
X84266114Y-101569923D02*
X84932780Y-101569923D01*
X83885161Y-101808019D02*
X84599447Y-102046114D01*
X84599447Y-101427066D01*
%TO.C,R3*%
X71054933Y-117901980D02*
X70721600Y-117425790D01*
X70483504Y-117901980D02*
X70483504Y-116901980D01*
X70864457Y-116901980D01*
X70959695Y-116949600D01*
X71007314Y-116997219D01*
X71054933Y-117092457D01*
X71054933Y-117235314D01*
X71007314Y-117330552D01*
X70959695Y-117378171D01*
X70864457Y-117425790D01*
X70483504Y-117425790D01*
X71388266Y-116901980D02*
X72007314Y-116901980D01*
X71673980Y-117282933D01*
X71816838Y-117282933D01*
X71912076Y-117330552D01*
X71959695Y-117378171D01*
X72007314Y-117473409D01*
X72007314Y-117711504D01*
X71959695Y-117806742D01*
X71912076Y-117854361D01*
X71816838Y-117901980D01*
X71531123Y-117901980D01*
X71435885Y-117854361D01*
X71388266Y-117806742D01*
%TO.C,RV1*%
X89654780Y-105639638D02*
X89178590Y-105972971D01*
X89654780Y-106211066D02*
X88654780Y-106211066D01*
X88654780Y-105830114D01*
X88702400Y-105734876D01*
X88750019Y-105687257D01*
X88845257Y-105639638D01*
X88988114Y-105639638D01*
X89083352Y-105687257D01*
X89130971Y-105734876D01*
X89178590Y-105830114D01*
X89178590Y-106211066D01*
X88654780Y-105353923D02*
X89654780Y-105020590D01*
X88654780Y-104687257D01*
X89654780Y-103830114D02*
X89654780Y-104401542D01*
X89654780Y-104115828D02*
X88654780Y-104115828D01*
X88797638Y-104211066D01*
X88892876Y-104306304D01*
X88940495Y-104401542D01*
%TO.C,R8*%
X87117180Y-102477866D02*
X86640990Y-102811200D01*
X87117180Y-103049295D02*
X86117180Y-103049295D01*
X86117180Y-102668342D01*
X86164800Y-102573104D01*
X86212419Y-102525485D01*
X86307657Y-102477866D01*
X86450514Y-102477866D01*
X86545752Y-102525485D01*
X86593371Y-102573104D01*
X86640990Y-102668342D01*
X86640990Y-103049295D01*
X86545752Y-101906438D02*
X86498133Y-102001676D01*
X86450514Y-102049295D01*
X86355276Y-102096914D01*
X86307657Y-102096914D01*
X86212419Y-102049295D01*
X86164800Y-102001676D01*
X86117180Y-101906438D01*
X86117180Y-101715961D01*
X86164800Y-101620723D01*
X86212419Y-101573104D01*
X86307657Y-101525485D01*
X86355276Y-101525485D01*
X86450514Y-101573104D01*
X86498133Y-101620723D01*
X86545752Y-101715961D01*
X86545752Y-101906438D01*
X86593371Y-102001676D01*
X86640990Y-102049295D01*
X86736228Y-102096914D01*
X86926704Y-102096914D01*
X87021942Y-102049295D01*
X87069561Y-102001676D01*
X87117180Y-101906438D01*
X87117180Y-101715961D01*
X87069561Y-101620723D01*
X87021942Y-101573104D01*
X86926704Y-101525485D01*
X86736228Y-101525485D01*
X86640990Y-101573104D01*
X86593371Y-101620723D01*
X86545752Y-101715961D01*
%TO.C,R11*%
X85872580Y-118295657D02*
X85396390Y-118628990D01*
X85872580Y-118867085D02*
X84872580Y-118867085D01*
X84872580Y-118486133D01*
X84920200Y-118390895D01*
X84967819Y-118343276D01*
X85063057Y-118295657D01*
X85205914Y-118295657D01*
X85301152Y-118343276D01*
X85348771Y-118390895D01*
X85396390Y-118486133D01*
X85396390Y-118867085D01*
X85872580Y-117343276D02*
X85872580Y-117914704D01*
X85872580Y-117628990D02*
X84872580Y-117628990D01*
X85015438Y-117724228D01*
X85110676Y-117819466D01*
X85158295Y-117914704D01*
X85872580Y-116390895D02*
X85872580Y-116962323D01*
X85872580Y-116676609D02*
X84872580Y-116676609D01*
X85015438Y-116771847D01*
X85110676Y-116867085D01*
X85158295Y-116962323D01*
%TO.C,R10*%
X70299342Y-113736380D02*
X69966009Y-113260190D01*
X69727914Y-113736380D02*
X69727914Y-112736380D01*
X70108866Y-112736380D01*
X70204104Y-112784000D01*
X70251723Y-112831619D01*
X70299342Y-112926857D01*
X70299342Y-113069714D01*
X70251723Y-113164952D01*
X70204104Y-113212571D01*
X70108866Y-113260190D01*
X69727914Y-113260190D01*
X71251723Y-113736380D02*
X70680295Y-113736380D01*
X70966009Y-113736380D02*
X70966009Y-112736380D01*
X70870771Y-112879238D01*
X70775533Y-112974476D01*
X70680295Y-113022095D01*
X71870771Y-112736380D02*
X71966009Y-112736380D01*
X72061247Y-112784000D01*
X72108866Y-112831619D01*
X72156485Y-112926857D01*
X72204104Y-113117333D01*
X72204104Y-113355428D01*
X72156485Y-113545904D01*
X72108866Y-113641142D01*
X72061247Y-113688761D01*
X71966009Y-113736380D01*
X71870771Y-113736380D01*
X71775533Y-113688761D01*
X71727914Y-113641142D01*
X71680295Y-113545904D01*
X71632676Y-113355428D01*
X71632676Y-113117333D01*
X71680295Y-112926857D01*
X71727914Y-112831619D01*
X71775533Y-112784000D01*
X71870771Y-112736380D01*
%TO.C,RV2*%
X89606380Y-117232038D02*
X89130190Y-117565371D01*
X89606380Y-117803466D02*
X88606380Y-117803466D01*
X88606380Y-117422514D01*
X88654000Y-117327276D01*
X88701619Y-117279657D01*
X88796857Y-117232038D01*
X88939714Y-117232038D01*
X89034952Y-117279657D01*
X89082571Y-117327276D01*
X89130190Y-117422514D01*
X89130190Y-117803466D01*
X88606380Y-116946323D02*
X89606380Y-116612990D01*
X88606380Y-116279657D01*
X88701619Y-115993942D02*
X88654000Y-115946323D01*
X88606380Y-115851085D01*
X88606380Y-115612990D01*
X88654000Y-115517752D01*
X88701619Y-115470133D01*
X88796857Y-115422514D01*
X88892095Y-115422514D01*
X89034952Y-115470133D01*
X89606380Y-116041561D01*
X89606380Y-115422514D01*
%TO.C,R12*%
X87225142Y-113151180D02*
X86891809Y-112674990D01*
X86653714Y-113151180D02*
X86653714Y-112151180D01*
X87034666Y-112151180D01*
X87129904Y-112198800D01*
X87177523Y-112246419D01*
X87225142Y-112341657D01*
X87225142Y-112484514D01*
X87177523Y-112579752D01*
X87129904Y-112627371D01*
X87034666Y-112674990D01*
X86653714Y-112674990D01*
X88177523Y-113151180D02*
X87606095Y-113151180D01*
X87891809Y-113151180D02*
X87891809Y-112151180D01*
X87796571Y-112294038D01*
X87701333Y-112389276D01*
X87606095Y-112436895D01*
X88558476Y-112246419D02*
X88606095Y-112198800D01*
X88701333Y-112151180D01*
X88939428Y-112151180D01*
X89034666Y-112198800D01*
X89082285Y-112246419D01*
X89129904Y-112341657D01*
X89129904Y-112436895D01*
X89082285Y-112579752D01*
X88510857Y-113151180D01*
X89129904Y-113151180D01*
%TO.C,J2*%
X90004780Y-122761333D02*
X90719066Y-122761333D01*
X90861923Y-122808952D01*
X90957161Y-122904190D01*
X91004780Y-123047047D01*
X91004780Y-123142285D01*
X90100019Y-122332761D02*
X90052400Y-122285142D01*
X90004780Y-122189904D01*
X90004780Y-121951809D01*
X90052400Y-121856571D01*
X90100019Y-121808952D01*
X90195257Y-121761333D01*
X90290495Y-121761333D01*
X90433352Y-121808952D01*
X91004780Y-122380380D01*
X91004780Y-121761333D01*
%TO.C,R2*%
X82849980Y-102445866D02*
X82373790Y-102779200D01*
X82849980Y-103017295D02*
X81849980Y-103017295D01*
X81849980Y-102636342D01*
X81897600Y-102541104D01*
X81945219Y-102493485D01*
X82040457Y-102445866D01*
X82183314Y-102445866D01*
X82278552Y-102493485D01*
X82326171Y-102541104D01*
X82373790Y-102636342D01*
X82373790Y-103017295D01*
X81945219Y-102064914D02*
X81897600Y-102017295D01*
X81849980Y-101922057D01*
X81849980Y-101683961D01*
X81897600Y-101588723D01*
X81945219Y-101541104D01*
X82040457Y-101493485D01*
X82135695Y-101493485D01*
X82278552Y-101541104D01*
X82849980Y-102112533D01*
X82849980Y-101493485D01*
%TO.C,U1*%
X81026095Y-107710780D02*
X81026095Y-108520304D01*
X81073714Y-108615542D01*
X81121333Y-108663161D01*
X81216571Y-108710780D01*
X81407047Y-108710780D01*
X81502285Y-108663161D01*
X81549904Y-108615542D01*
X81597523Y-108520304D01*
X81597523Y-107710780D01*
X82597523Y-108710780D02*
X82026095Y-108710780D01*
X82311809Y-108710780D02*
X82311809Y-107710780D01*
X82216571Y-107853638D01*
X82121333Y-107948876D01*
X82026095Y-107996495D01*
%TO.C,R5*%
X80614780Y-102445866D02*
X80138590Y-102779200D01*
X80614780Y-103017295D02*
X79614780Y-103017295D01*
X79614780Y-102636342D01*
X79662400Y-102541104D01*
X79710019Y-102493485D01*
X79805257Y-102445866D01*
X79948114Y-102445866D01*
X80043352Y-102493485D01*
X80090971Y-102541104D01*
X80138590Y-102636342D01*
X80138590Y-103017295D01*
X79614780Y-101541104D02*
X79614780Y-102017295D01*
X80090971Y-102064914D01*
X80043352Y-102017295D01*
X79995733Y-101922057D01*
X79995733Y-101683961D01*
X80043352Y-101588723D01*
X80090971Y-101541104D01*
X80186209Y-101493485D01*
X80424304Y-101493485D01*
X80519542Y-101541104D01*
X80567161Y-101588723D01*
X80614780Y-101683961D01*
X80614780Y-101922057D01*
X80567161Y-102017295D01*
X80519542Y-102064914D01*
%TO.C,R9*%
X78328780Y-102411066D02*
X77852590Y-102744400D01*
X78328780Y-102982495D02*
X77328780Y-102982495D01*
X77328780Y-102601542D01*
X77376400Y-102506304D01*
X77424019Y-102458685D01*
X77519257Y-102411066D01*
X77662114Y-102411066D01*
X77757352Y-102458685D01*
X77804971Y-102506304D01*
X77852590Y-102601542D01*
X77852590Y-102982495D01*
X78328780Y-101934876D02*
X78328780Y-101744400D01*
X78281161Y-101649161D01*
X78233542Y-101601542D01*
X78090685Y-101506304D01*
X77900209Y-101458685D01*
X77519257Y-101458685D01*
X77424019Y-101506304D01*
X77376400Y-101553923D01*
X77328780Y-101649161D01*
X77328780Y-101839638D01*
X77376400Y-101934876D01*
X77424019Y-101982495D01*
X77519257Y-102030114D01*
X77757352Y-102030114D01*
X77852590Y-101982495D01*
X77900209Y-101934876D01*
X77947828Y-101839638D01*
X77947828Y-101649161D01*
X77900209Y-101553923D01*
X77852590Y-101506304D01*
X77757352Y-101458685D01*
%TO.C,R7*%
X71207333Y-115819180D02*
X70874000Y-115342990D01*
X70635904Y-115819180D02*
X70635904Y-114819180D01*
X71016857Y-114819180D01*
X71112095Y-114866800D01*
X71159714Y-114914419D01*
X71207333Y-115009657D01*
X71207333Y-115152514D01*
X71159714Y-115247752D01*
X71112095Y-115295371D01*
X71016857Y-115342990D01*
X70635904Y-115342990D01*
X71540666Y-114819180D02*
X72207333Y-114819180D01*
X71778761Y-115819180D01*
%TO.C,R6*%
X71207333Y-111729780D02*
X70874000Y-111253590D01*
X70635904Y-111729780D02*
X70635904Y-110729780D01*
X71016857Y-110729780D01*
X71112095Y-110777400D01*
X71159714Y-110825019D01*
X71207333Y-110920257D01*
X71207333Y-111063114D01*
X71159714Y-111158352D01*
X71112095Y-111205971D01*
X71016857Y-111253590D01*
X70635904Y-111253590D01*
X72064476Y-110729780D02*
X71874000Y-110729780D01*
X71778761Y-110777400D01*
X71731142Y-110825019D01*
X71635904Y-110967876D01*
X71588285Y-111158352D01*
X71588285Y-111539304D01*
X71635904Y-111634542D01*
X71683523Y-111682161D01*
X71778761Y-111729780D01*
X71969238Y-111729780D01*
X72064476Y-111682161D01*
X72112095Y-111634542D01*
X72159714Y-111539304D01*
X72159714Y-111301209D01*
X72112095Y-111205971D01*
X72064476Y-111158352D01*
X71969238Y-111110733D01*
X71778761Y-111110733D01*
X71683523Y-111158352D01*
X71635904Y-111205971D01*
X71588285Y-111301209D01*
%TO.C,R1*%
X71334333Y-109545380D02*
X71001000Y-109069190D01*
X70762904Y-109545380D02*
X70762904Y-108545380D01*
X71143857Y-108545380D01*
X71239095Y-108593000D01*
X71286714Y-108640619D01*
X71334333Y-108735857D01*
X71334333Y-108878714D01*
X71286714Y-108973952D01*
X71239095Y-109021571D01*
X71143857Y-109069190D01*
X70762904Y-109069190D01*
X72286714Y-109545380D02*
X71715285Y-109545380D01*
X72001000Y-109545380D02*
X72001000Y-108545380D01*
X71905761Y-108688238D01*
X71810523Y-108783476D01*
X71715285Y-108831095D01*
%TO.C,J1*%
X93978266Y-95464380D02*
X93978266Y-96178666D01*
X93930647Y-96321523D01*
X93835409Y-96416761D01*
X93692552Y-96464380D01*
X93597314Y-96464380D01*
X94978266Y-96464380D02*
X94406838Y-96464380D01*
X94692552Y-96464380D02*
X94692552Y-95464380D01*
X94597314Y-95607238D01*
X94502076Y-95702476D01*
X94406838Y-95750095D01*
D11*
%TO.C,R4*%
X85266200Y-105417864D02*
X85266200Y-104963736D01*
X83796200Y-105417864D02*
X83796200Y-104963736D01*
%TO.C,R3*%
X73956936Y-118235400D02*
X74411064Y-118235400D01*
X73956936Y-116765400D02*
X74411064Y-116765400D01*
%TO.C,RV1*%
X90332400Y-100159400D02*
X95402400Y-100159400D01*
X90332400Y-109929400D02*
X90332400Y-100159400D01*
X90332400Y-109929400D02*
X95402400Y-109929400D01*
X95402400Y-109929400D02*
X95402400Y-100159400D01*
%TO.C,R8*%
X87399800Y-105417864D02*
X87399800Y-104963736D01*
X85929800Y-105417864D02*
X85929800Y-104963736D01*
%TO.C,R11*%
X82932600Y-118016264D02*
X82932600Y-117562136D01*
X84402600Y-118016264D02*
X84402600Y-117562136D01*
%TO.C,R10*%
X73975736Y-113968200D02*
X74429864Y-113968200D01*
X73975736Y-112498200D02*
X74429864Y-112498200D01*
%TO.C,RV2*%
X95290800Y-111355400D02*
X90220800Y-111355400D01*
X95290800Y-121125400D02*
X90220800Y-121125400D01*
X95290800Y-111355400D02*
X95290800Y-121125400D01*
X90220800Y-111355400D02*
X90220800Y-121125400D01*
%TO.C,R12*%
X88095064Y-111783800D02*
X87640936Y-111783800D01*
X88095064Y-110313800D02*
X87640936Y-110313800D01*
%TO.C,J2*%
X86512400Y-121098000D02*
X86512400Y-123758000D01*
X89112400Y-122428000D02*
X89112400Y-123758000D01*
X89112400Y-123758000D02*
X87782400Y-123758000D01*
X86512400Y-121098000D02*
X76292400Y-121098000D01*
X76292400Y-121098000D02*
X76292400Y-123758000D01*
X86512400Y-123758000D02*
X76292400Y-123758000D01*
%TO.C,R2*%
X83081800Y-105417864D02*
X83081800Y-104963736D01*
X81611800Y-105417864D02*
X81611800Y-104963736D01*
%TO.C,U1*%
X81788000Y-114218400D02*
X79838000Y-114218400D01*
X81788000Y-109098400D02*
X83738000Y-109098400D01*
X81788000Y-109098400D02*
X78338000Y-109098400D01*
X81788000Y-114218400D02*
X83738000Y-114218400D01*
%TO.C,R5*%
X79427400Y-104963736D02*
X79427400Y-105417864D01*
X80897400Y-104963736D02*
X80897400Y-105417864D01*
%TO.C,R9*%
X78611400Y-104878136D02*
X78611400Y-105332264D01*
X77141400Y-104878136D02*
X77141400Y-105332264D01*
%TO.C,R7*%
X74429864Y-114682600D02*
X73975736Y-114682600D01*
X74429864Y-116152600D02*
X73975736Y-116152600D01*
%TO.C,R6*%
X73962536Y-111783800D02*
X74416664Y-111783800D01*
X73962536Y-110313800D02*
X74416664Y-110313800D01*
%TO.C,R1*%
X74360264Y-108078600D02*
X73906136Y-108078600D01*
X74360264Y-109548600D02*
X73906136Y-109548600D01*
%TO.C,J1*%
X92871600Y-97342000D02*
X91541600Y-97342000D01*
X90271600Y-94682000D02*
X90271600Y-97342000D01*
X92871600Y-96012000D02*
X92871600Y-97342000D01*
X90271600Y-94682000D02*
X72431600Y-94682000D01*
X90271600Y-97342000D02*
X72431600Y-97342000D01*
X72431600Y-94682000D02*
X72431600Y-97342000D01*
%TD*%
M02*
